<svg width="21" height="20" viewBox="0 0 21 20" fill="none" xmlns="http://www.w3.org/2000/svg">
<path fill-rule="evenodd" clip-rule="evenodd" d="M20.6347 9.99988C20.6347 4.47745 16.0151 0 10.3173 0C4.61959 0 0 4.47745 0 9.99988C0 14.9915 3.77271 19.1281 8.70525 19.8781V12.8915H6.08551V9.99988H8.70525V7.79657C8.70525 5.29077 10.246 3.90662 12.6026 3.90662C13.7307 3.90662 14.912 4.10162 14.912 4.10162V6.56242H13.6103C12.3284 6.56242 11.9286 7.33324 11.9286 8.12407V9.99988H14.7899L14.3325 12.8907H11.9286V19.8781C16.862 19.1281 20.6347 14.9915 20.6347 9.99988Z" fill="#1877F2"/>
<path fill-rule="evenodd" clip-rule="evenodd" d="M14.3333 12.8907L14.7907 9.99989H11.9294V8.12408C11.9294 7.33325 12.3292 6.56243 13.6111 6.56243H14.912V4.10163C14.912 4.10163 13.7306 3.90663 12.6026 3.90663C10.246 3.90663 8.70524 5.28995 8.70524 7.79658V9.99989H6.0855V12.8907H8.70524V19.8781C9.77342 20.0406 10.8612 20.0406 11.9294 19.8781V12.8915H14.3333" fill="white"/>
</svg>
