<svg width="21" height="20" viewBox="0 0 21 20" fill="none" xmlns="http://www.w3.org/2000/svg">
<g clip-path="url(#clip0_253_506)">
<path fill-rule="evenodd" clip-rule="evenodd" d="M10.3175 3.86667C12.2548 3.86667 13.5617 4.67778 14.3069 5.35556L17.2187 2.6C15.4303 0.988889 13.1032 0 10.3175 0C6.28218 0 2.79717 2.24444 1.10052 5.51111L4.4365 8.02222C5.27336 5.61111 7.58906 3.86667 10.3175 3.86667Z" fill="#EA4335"/>
<path fill-rule="evenodd" clip-rule="evenodd" d="M20.2222 10.2222C20.2222 9.40002 20.1535 8.80002 20.0044 8.1778H10.3175V11.8889H16.0035C15.8889 12.8111 15.2699 14.2 13.8942 15.1334L17.1499 17.5778C19.0988 15.8334 20.2222 13.2667 20.2222 10.2222Z" fill="#4285F4"/>
<path fill-rule="evenodd" clip-rule="evenodd" d="M4.44797 11.9778C4.22255 11.3412 4.10637 10.673 4.10406 10C4.10406 9.31111 4.23016 8.64444 4.43651 8.02222L1.10053 5.51111C0.378008 6.90392 0.00115256 8.44105 0 10C0 11.6111 0.401235 13.1333 1.10053 14.4889L4.44797 11.9778Z" fill="#FBBC05"/>
<path fill-rule="evenodd" clip-rule="evenodd" d="M10.3175 20C13.1032 20 15.4418 19.1111 17.1499 17.5778L13.8942 15.1333C13.0229 15.7222 11.8536 16.1333 10.3175 16.1333C7.58906 16.1333 5.27336 14.3889 4.44796 11.9778L1.11198 14.4889C2.80863 17.7556 6.28218 20 10.3175 20Z" fill="#34A853"/>
</g>
<defs>
<clipPath id="clip0_253_506">
<rect width="20.6349" height="20" fill="white"/>
</clipPath>
</defs>
</svg>
