<svg width="21" height="25" viewBox="0 0 21 25" fill="none" xmlns="http://www.w3.org/2000/svg">
<path d="M11.5714 2.18077C12.0427 1.54932 12.652 1.02646 13.3558 0.649495C14.0595 0.272533 14.8405 0.0507607 15.6429 0C15.7128 0.707728 15.635 1.42186 15.4141 2.09983C15.1932 2.77779 14.8338 3.40571 14.3571 3.94615C13.9219 4.53376 13.3393 5.00419 12.6645 5.31306C11.9896 5.62194 11.2447 5.75908 10.5 5.71154C10.4227 5.08337 10.4778 4.44653 10.662 3.83962C10.8462 3.23271 11.1556 2.66836 11.5714 2.18077ZM6.21429 6.02308C3.21429 6.02308 0 8.61923 0 13.6038C0 18.6923 3.75 24.9231 6.75 24.9231C7.82143 24.9231 9.42857 23.8846 11.0357 23.8846C12.6429 23.8846 13.8214 24.8192 15.3214 24.8192C18.6429 24.8192 21 18.1731 21 18.1731C19.9762 17.7449 19.1051 17.034 18.4954 16.1291C17.8857 15.2242 17.5643 14.1654 17.5714 13.0846C17.5721 12.1373 17.8298 11.2068 18.3188 10.3866C18.8077 9.56633 19.5107 8.88519 20.3571 8.41154C19.8079 7.61325 19.0565 6.96491 18.1748 6.52855C17.2931 6.09218 16.3107 5.88239 15.3214 5.91923C13.1786 5.91923 11.5714 7.06154 10.7143 7.06154C9.75 7.06154 8.14286 6.02308 6.21429 6.02308Z" fill="#6C6A6C"/>
</svg>
